<svg width="336" height="118" viewBox="0 0 336 118" fill="none" xmlns="http://www.w3.org/2000/svg">
<path fill-rule="evenodd" clip-rule="evenodd" d="M158.592 33.9531L198.166 1.0926C198.932 0.457014 199.895 0.109131 200.89 0.109131H226.717C228.108 0.109131 229.411 0.787138 230.209 1.92586C231.007 3.06471 231.2 4.52099 230.725 5.82817L209.047 65.5374H330.081C334.45 65.5374 336.705 69.0842 335.115 73.4527L329.354 89.2831C327.764 93.6517 322.926 97.1983 318.558 97.1983H197.553L191.344 114.3C190.732 115.986 189.13 117.109 187.336 117.109H161.509C160.119 117.109 158.816 116.431 158.018 115.292C157.22 114.154 157.027 112.697 157.501 111.39L162.662 97.1753H114.765C113.374 97.1753 112.071 96.4972 111.273 95.3585C110.475 94.2198 110.282 92.7634 110.757 91.4563L119.605 67.0846C119.784 66.5917 120.052 66.1379 120.393 65.7447H5.68868C1.3021 65.7447 -0.963019 62.1834 0.63359 57.7968L6.41909 41.901C8.0157 37.5145 12.8732 33.9531 17.2598 33.9531H158.592ZM168.746 92.9114H114.765L123.613 68.5396L200.89 4.373H226.717L202.919 69.9219H216.306L207.959 92.9114H194.573L187.336 112.845H161.509L168.746 92.9114ZM177.093 69.9219L189.269 36.3836L148.574 69.9219H177.093ZM160.452 65.658H174.104L179.933 49.6028L160.452 65.658Z" fill="#C41230"/>
<path fill-rule="evenodd" clip-rule="evenodd" d="M168.746 92.9114H114.765L123.613 68.5396L200.89 4.37299H226.717L202.919 69.9219H216.306L207.959 92.9114H194.573L187.336 112.845H161.509L168.746 92.9114ZM177.093 69.9219L189.269 36.3836L148.574 69.9219H177.093Z" fill="white"/>
<path fill-rule="evenodd" clip-rule="evenodd" d="M35.4387 38.2463C35.9758 38.2463 36.5908 38.2986 37.284 38.403C37.977 38.5074 38.5162 38.7685 38.9015 39.1861C39.1323 39.4547 39.2802 39.7456 39.3456 40.0589C39.4108 40.3721 39.4313 40.6855 39.4071 40.9987C39.383 41.3119 39.3315 41.6177 39.2531 41.9162C39.1746 42.2145 39.0921 42.4831 39.0054 42.7217L37.0069 48.2264C36.6819 49.1215 36.2952 49.8376 35.8465 50.3745C35.398 50.9116 34.9609 51.3143 34.5352 51.5829C33.8249 52.0603 33.0554 52.3512 32.2269 52.4556C31.3983 52.56 30.7304 52.6122 30.2232 52.6122H27.0904L34.5735 61.3391H26.8758L20.7354 52.6122H15.6784L12.5101 61.3391H7.13965L15.5235 38.2463H35.4387ZM19.464 42.1846L17.1081 48.6739H29.4154C29.5944 48.6739 29.8412 48.6515 30.1558 48.6068C30.4703 48.5621 30.7592 48.465 31.0222 48.3159C31.4072 48.0772 31.6736 47.8161 31.8212 47.5327C31.9688 47.2492 32.0752 47.018 32.1402 46.8391L33.1637 44.0195C33.2287 43.8406 33.2903 43.6093 33.3485 43.3258C33.4066 43.0425 33.3299 42.7814 33.1181 42.5426C32.9445 42.3637 32.6914 42.2593 32.3592 42.2294C32.0269 42.1996 31.8011 42.1846 31.6817 42.1846H19.464Z" fill="white"/>
<path fill-rule="evenodd" clip-rule="evenodd" d="M71.51 38.2463L70.0803 42.1846H51.8208L49.9523 47.3314H60.6037L59.1738 51.2697H48.5225L46.3941 57.1324H64.8772L63.35 61.3391H39.4963L47.8803 38.2463H71.51Z" fill="white"/>
<path fill-rule="evenodd" clip-rule="evenodd" d="M93.4675 51.8514C93.5923 52.0006 93.6982 52.12 93.785 52.2095C93.8718 52.2989 93.973 52.4109 94.0883 52.545C94.2037 52.6793 94.3393 52.8807 94.4955 53.1493C94.6516 53.4178 94.8858 53.8205 95.198 54.3576L96.4203 50.3745L100.823 38.2463H105.657L97.273 61.3391H93.6032L81.8247 47.0628C81.7867 47.0031 81.6265 46.7868 81.3442 46.4139C81.062 46.041 80.8081 45.6307 80.5827 45.1831L80.0346 47.0628C80.002 47.1523 79.9743 47.2492 79.9513 47.3537C79.9283 47.4581 79.9005 47.5551 79.8681 47.6446C79.7896 47.9429 79.7259 48.1592 79.6772 48.2935L74.941 61.3391H70.1077L78.4915 38.2463H82.1612L93.4675 51.8514Z" fill="white"/>
<path fill-rule="evenodd" clip-rule="evenodd" d="M119.784 61.3391H114.414L121.27 42.4532H110.664L112.191 38.2463H138.774L137.247 42.4532H126.641L119.784 61.3391Z" fill="white"/>
<path fill-rule="evenodd" clip-rule="evenodd" d="M244.846 69.9219C245.383 69.9219 245.998 69.9741 246.69 70.0785C247.383 70.1828 247.922 70.4437 248.307 70.8611C248.537 71.1294 248.685 71.4201 248.75 71.7331C248.816 72.0462 248.836 72.3592 248.812 72.6722C248.788 72.9853 248.736 73.2908 248.658 73.5889C248.58 73.8871 248.497 74.1554 248.41 74.3939L246.413 79.8945C246.089 80.7889 245.702 81.5044 245.254 82.0409C244.806 82.5776 244.369 82.9801 243.944 83.2485C243.234 83.7255 242.465 84.0161 241.637 84.1205C240.809 84.2248 240.142 84.277 239.635 84.277H236.505L243.982 92.9973H236.29L230.154 84.277H225.101L221.935 92.9973H216.569L224.946 69.9219H244.846ZM228.884 73.8573L226.53 80.3416H238.828C239.007 80.3416 239.253 80.3193 239.567 80.2745C239.882 80.2299 240.17 80.133 240.433 79.9839C240.818 79.7454 241.084 79.4845 241.232 79.2013C241.379 78.918 241.485 78.687 241.55 78.5081L242.573 75.6908C242.638 75.5119 242.7 75.2809 242.758 74.9976C242.816 74.7144 242.739 74.4535 242.528 74.215C242.354 74.0362 242.101 73.9319 241.769 73.902C241.437 73.8722 241.212 73.8573 241.092 73.8573H228.884Z" fill="white"/>
<path fill-rule="evenodd" clip-rule="evenodd" d="M254.267 92.9973H248.901L257.279 69.9219H262.645L254.267 92.9973Z" fill="white"/>
<path fill-rule="evenodd" clip-rule="evenodd" d="M284.452 83.5167C284.576 83.6658 284.682 83.785 284.769 83.8744C284.856 83.964 284.957 84.0757 285.072 84.2099C285.187 84.344 285.323 84.5453 285.479 84.8136C285.635 85.082 285.869 85.4844 286.181 86.0211L287.402 82.0409L291.802 69.9219H296.632L288.254 92.9973H284.587L272.818 78.7317C272.78 78.6721 272.62 78.4559 272.338 78.0833C272.056 77.7106 271.802 77.3007 271.577 76.8535L271.029 78.7317C270.996 78.8212 270.969 78.918 270.946 79.0225C270.923 79.1268 270.895 79.2236 270.863 79.3131C270.784 79.6112 270.721 79.8274 270.672 79.9615L265.939 92.9973H261.109L269.487 69.9219H273.154L284.452 83.5167Z" fill="white"/>
<path fill-rule="evenodd" clip-rule="evenodd" d="M306.375 74.1256L301.05 88.7936H317.686L319.569 83.6062H310.938L312.367 79.6709H326.364L323.507 87.5415C323.42 87.7801 323.302 88.0857 323.151 88.4582C323.001 88.8309 322.816 89.2185 322.595 89.621C322.374 90.0235 322.102 90.4259 321.777 90.8284C321.452 91.2309 321.086 91.5811 320.68 91.8793C319.918 92.416 319.101 92.7365 318.229 92.8408C317.356 92.9452 316.547 92.9973 315.802 92.9973H299.881C299.136 92.9973 298.365 92.9452 297.568 92.8408C296.771 92.7365 296.187 92.416 295.815 91.8793C295.596 91.5811 295.477 91.2309 295.459 90.8284C295.441 90.4259 295.468 90.0235 295.54 89.621C295.611 89.2185 295.707 88.8309 295.828 88.4582C295.948 88.0857 296.052 87.7801 296.138 87.5415L300.554 75.3778C300.641 75.1393 300.759 74.8337 300.909 74.461C301.059 74.0884 301.245 73.7008 301.466 73.2982C301.686 72.8959 301.952 72.4933 302.262 72.0908C302.572 71.6883 302.945 71.3381 303.381 71.0399C304.142 70.5034 304.959 70.1828 305.832 70.0785C306.705 69.9741 307.514 69.9219 308.259 69.9219H324.179C324.865 69.9219 325.606 69.9741 326.403 70.0785C327.2 70.1828 327.805 70.4884 328.217 70.9953C328.618 71.5318 328.745 72.1878 328.598 72.9629C328.451 73.738 328.253 74.4684 328.004 75.1542L327.777 75.7803L322.069 76.7194L323.011 74.1256H306.375Z" fill="white"/>
</svg>
